<?xml version="1.0" encoding="UTF-8" standalone="no"?>
<svg
   viewBox="0 0 439.57556 180.59134"
   version="1.1"
   id="svg3"
   sodipodi:docname="button_normal.svg"
   xml:space="preserve"
   width="439.57556"
   height="180.59134"
   inkscape:version="1.4.2 (f4327f4, 2025-05-13)"
   xmlns:inkscape="http://www.inkscape.org/namespaces/inkscape"
   xmlns:sodipodi="http://sodipodi.sourceforge.net/DTD/sodipodi-0.dtd"
   xmlns="http://www.w3.org/2000/svg"
   xmlns:svg="http://www.w3.org/2000/svg"><defs
     id="defs3"><filter
       inkscape:label="Drop Shadow"
       inkscape:menu-tooltip="Soft bevel, slightly depressed middle"
       inkscape:menu="Bevels"
       style="color-interpolation-filters:sRGB"
       id="filter10"
       x="-0.036589073"
       y="-0.163383"
       width="1.0775003"
       height="1.338007"><feColorMatrix
         result="result2"
         type="luminanceToAlpha"
         id="feColorMatrix8" /><feDiffuseLighting
         diffuseConstant="0.5"
         result="result1"
         surfaceScale="-10"
         id="feDiffuseLighting8"><feDistantLight
           elevation="20"
           azimuth="225"
           id="feDistantLight8" /></feDiffuseLighting><feComposite
         result="result3"
         k3="1"
         k2="1"
         k1="1"
         in="result1"
         operator="arithmetic"
         in2="SourceGraphic"
         id="feComposite8"
         k4="0" /><feBlend
         result="result4"
         mode="multiply"
         in="result2"
         in2="result3"
         id="feBlend8" /><feComposite
         result="result5"
         operator="arithmetic"
         k2="1.2"
         in2="result4"
         id="feComposite9"
         k1="0"
         k3="0"
         k4="0" /><feComposite
         operator="in"
         in="result5"
         in2="SourceGraphic"
         id="feComposite10"
         result="fbSourceGraphic" /><feColorMatrix
         result="fbSourceGraphicAlpha"
         in="fbSourceGraphic"
         values="0 0 0 -1 0 0 0 0 -1 0 0 0 0 -1 0 0 0 0 1 0"
         id="feColorMatrix10" /><feColorMatrix
         id="feColorMatrix11"
         values="1 0 0 0 0 0 1 0 0 0 0 0 1 0 0 0 0 0 1 0 "
         result="fbSourceGraphic"
         in="fbSourceGraphic" /><feGaussianBlur
         id="feGaussianBlur11"
         stdDeviation="3 12.191"
         result="result1" /><feOffset
         id="feOffset11"
         dx="2"
         dy="2"
         result="result6" /><feComposite
         id="feComposite11"
         operator="in"
         result="result2"
         in="result6"
         in2="result1" /><feColorMatrix
         id="feColorMatrix12"
         values="110"
         result="result3"
         type="hueRotate" /><feBlend
         id="feBlend12"
         mode="screen"
         in="result2"
         in2="result3"
         result="result4" /><feConvolveMatrix
         id="feConvolveMatrix12"
         order="3 3"
         kernelMatrix="-2 0 2 0 4 0 2 0 2"
         divisor="2"
         bias="0"
         targetX="0"
         in="result4"
         result="result5" /><feComposite
         id="feComposite12"
         operator="atop"
         in="result2"
         in2="result5"
         result="fbSourceGraphic" /><feColorMatrix
         result="fbSourceGraphicAlpha"
         in="fbSourceGraphic"
         values="0 0 0 -1 0 0 0 0 -1 0 0 0 0 -1 0 0 0 0 1 0"
         id="feColorMatrix21" /><feGaussianBlur
         id="feGaussianBlur21"
         stdDeviation="2.3"
         in="fbSourceGraphicAlpha"
         result="result0" /><feMorphology
         id="feMorphology21"
         in="fbSourceGraphicAlpha"
         radius="6.5"
         result="result1" /><feGaussianBlur
         id="feGaussianBlur22"
         stdDeviation="7"
         in="result1" /><feColorMatrix
         id="feColorMatrix22"
         values="1 0 0 0 0 0 1 0 0 0 0 0 1 0 0 0 0 0 0.3 0"
         result="result91" /><feComposite
         id="feComposite22"
         in="result0"
         operator="out"
         result="result2"
         in2="result91" /><feDiffuseLighting
         id="feDiffuseLighting22"
         surfaceScale="10"><feDistantLight
           id="feDistantLight22"
           azimuth="225"
           elevation="45" /></feDiffuseLighting><feBlend
         id="feBlend22"
         in2="fbSourceGraphic"
         mode="multiply" /><feComposite
         id="feComposite23"
         in2="fbSourceGraphicAlpha"
         operator="in"
         result="result3" /><feGaussianBlur
         id="feGaussianBlur23"
         stdDeviation="1"
         in="result3"
         result="result4" /><feComposite
         id="feComposite24"
         in2="result3"
         operator="atop"
         result="fbSourceGraphic" /><feColorMatrix
         result="fbSourceGraphicAlpha"
         in="fbSourceGraphic"
         values="0 0 0 -1 0 0 0 0 -1 0 0 0 0 -1 0 0 0 0 1 0"
         id="feColorMatrix77" /><feFlood
         id="feFlood77"
         result="flood"
         in="fbSourceGraphic"
         flood-opacity="0.498039"
         flood-color="rgb(0,0,0)" /><feGaussianBlur
         id="feGaussianBlur77"
         result="blur"
         in="fbSourceGraphic"
         stdDeviation="1.900000" /><feOffset
         id="feOffset77"
         result="offset"
         in="blur"
         dx="1.600000"
         dy="1.600000" /><feComposite
         id="feComposite77"
         result="comp1"
         operator="in"
         in="flood"
         in2="offset" /><feComposite
         id="feComposite78"
         result="comp2"
         operator="over"
         in="fbSourceGraphic"
         in2="comp1" /></filter><clipPath
       clipPathUnits="userSpaceOnUse"
       id="clipPath81"><rect
         style="fill:none"
         id="rect82"
         width="440.50787"
         height="180.59134"
         x="204.22011"
         y="75.949631" /></clipPath><clipPath
       clipPathUnits="userSpaceOnUse"
       id="clipPath82"><rect
         style="fill:none;stroke-width:2.12935"
         id="rect83"
         width="898.15149"
         height="401.60037"
         x="-27.996384"
         y="-364.00003"
         transform="scale(1,-1)" /></clipPath><clipPath
       clipPathUnits="userSpaceOnUse"
       id="clipPath83"><rect
         style="fill:none;stroke-width:2.13672"
         id="rect84"
         width="898.14777"
         height="404.38785"
         x="-27.994535"
         y="-31.868368" /></clipPath><clipPath
       clipPathUnits="userSpaceOnUse"
       id="clipPath84"><rect
         style="fill:none"
         id="rect85"
         width="440.50787"
         height="180.59134"
         x="204.22011"
         y="75.949631" /></clipPath></defs><sodipodi:namedview
     id="namedview3"
     pagecolor="#ffffff"
     bordercolor="#000000"
     borderopacity="0.25"
     inkscape:showpageshadow="2"
     inkscape:pageopacity="0.0"
     inkscape:pagecheckerboard="0"
     inkscape:deskcolor="#d1d1d1"
     inkscape:zoom="1.6758373"
     inkscape:cx="77.87152"
     inkscape:cy="-44.455389"
     inkscape:window-width="1920"
     inkscape:window-height="1057"
     inkscape:window-x="-8"
     inkscape:window-y="-8"
     inkscape:window-maximized="1"
     inkscape:current-layer="svg3" /><path
     fill="#f2f2f2"
     stroke="#f2f2f2"
     d="m 238.14567,91.105812 c -4.08997,0.732838 -10.31835,3.940618 -12.23606,6.301684 a 16.832676,15.32661 0 0 1 -1.34877,1.428161 c -0.39875,0.363069 -0.72491,0.765884 -0.72491,0.895392 0,0.129508 -0.54,0.960151 -1.20016,1.845711 -2.18011,2.92554 -2.65978,5.54295 -2.94228,16.06927 -2.42044,90.06482 -2.00109,101.88489 3.86582,108.8886 0.69155,0.82528 1.25755,1.70951 1.25755,1.96495 0,0.86859 4.03699,3.78878 6.74533,4.87933 6.33236,2.54997 8.59731,2.6107 115.37986,3.08318 26.5708,0.11745 53.7179,0.30591 60.32689,0.41844 23.70799,0.40327 72.04944,0.2885 82.15248,-0.19515 7.41973,-0.35548 12.49405,-0.3586 18.14712,-0.0125 5.43677,0.33315 9.45612,0.34074 13.08309,0.025 2.8795,-0.25098 22.96395,-0.57609 44.6321,-0.72302 24.08858,-0.163 40.34938,-0.44702 41.84872,-0.73015 6.31421,-1.19237 13.90314,-5.83412 15.67469,-9.58761 0.44779,-0.94899 1.27717,-2.52273 1.84266,-3.49762 2.82017,-4.86236 2.82017,-4.8628 2.81722,-44.22521 -0.003,-42.73946 -0.55422,-65.23903 -1.66953,-68.15519 -0.41199,-1.0767 -0.75188,-2.2646 -0.7558,-2.64018 -0.004,-0.37513 -0.66949,-1.84393 -1.47874,-3.26405 -0.80927,-1.4206 -1.47237,-2.82152 -1.47385,-3.11403 -0.01,-2.211016 -9.35557,-8.163474 -14.95665,-9.525989 C 604.28286,90.54176 242.0007,90.414932 238.14567,91.10579 m -0.69793,7.344894 c -3.80697,1.273198 -8.19906,5.807316 -8.21181,8.477416 -0.002,0.55778 0.40119,0.14737 1.07558,-1.09278 1.33945,-2.46422 4.20081,-5.03652 6.94986,-6.248092 l 2.08838,-0.920847 h 182.23579 c 199.29604,0 184.11917,-0.205872 188.09437,2.550419 0.98779,0.68505 2.41847,2.13911 3.18016,3.231 0.7612,1.09189 1.38408,1.66663 1.38408,1.27677 0,-1.69298 -3.27139,-5.04635 -6.34021,-6.499964 l -3.0644,-1.451384 -182.77677,0.03126 c -153.86646,0.02682 -183.06811,0.129082 -184.61503,0.646221 m -7.92637,122.512407 c 1.24382,1.98951 3.29836,3.53288 6.57612,4.93827 l 2.69755,1.15665 h 366.86602 l 2.20708,-1.05572 c 3.14632,-1.50543 5.16408,-2.96574 6.40593,-4.63729 l 1.07902,-1.45227 -1.54054,1.43218 c -0.84753,0.78776 -2.27085,1.93949 -3.16349,2.55935 -3.70643,2.57408 10.13835,2.38652 -188.48477,2.55354 l -182.89938,0.15363 -3.27434,-1.46791 c -2.02757,-0.90879 -4.06102,-2.26952 -5.33966,-3.57264 -1.76861,-1.80285 -1.93046,-1.88993 -1.12954,-0.60779"
     fill-rule="evenodd"
     id="path1"
     style="stroke-width:0.468007"
     clip-path="url(#clipPath84)"
     transform="matrix(1.0488434,0,0,1.095896,-225.13998,-87.980224)" /><path
     fill="#393939"
     stroke="#393939"
     d="M 37.909,10.893 C 34.834,11.879 27.260137,5.7675848 24.722137,7.5135848 20.225137,10.608585 23.062,18.984 22.009,17.017 19.497,12.322 14.297,17.032 8.099,29.616 4.692,36.534 4.012,48.767 2.853,124 2.239,163.875 1.535,209.325 1.289,225 c -0.445,28.354 0.038,36.788 3.344,58.296 3.52,22.901 15.248,35.968 36.039,40.154 20.068,4.04 740.675,3.934 755.328,-0.111 13.015,-3.593 25.284,-12.531 29.227,-21.291 1.125,-2.502 3.07,-6.798 4.321,-9.548 1.25,-2.75 2.746,-7.7 3.324,-11 2.344,-13.389 1.254,-232.707 -1.168,-235.129 -0.387,-0.388 -0.794,9.383 -0.905,21.712 L 830.598,90.5 829.994,66 C 829.546,47.806 828.992,40.342 827.844,37 823.264,23.666 813.308,10.506 810.039,13.465 807.645,15.632 804.79003,1.6197323 797.922,5.6921023 L 791.5,9.5 417.5,9.3 C 60.387,9.11 43.248,9.182 37.909,10.893 M 42.5,17.396 C 31.053,21.024 22.015,31.239 22.058,40.5 c 0.012,2.531 0.53,1.9 3.315,-4.032 3.797,-8.09 9.403,-13.522 16.422,-15.914 7.041,-2.399 740.091,-2.371 748.171,0.029 6.997,2.078 14.727,9.659 17.756,17.417 1.866,4.777 2.156,5.106 2.203,2.5 0.141,-7.634 -7.511,-17.562 -16.874,-21.894 L 788.5,16.5 417.5,16.314 C 120.284,16.165 45.704,16.38 42.5,17.396 M 18.536,283 c 2.273,11.72 13.111,21.524 26.541,24.006 3.647,0.675 128.842,0.926 374.949,0.753 L 789.5,307.5 l 5.665,-2.782 c 8.858,-4.351 15.985,-12.434 18.267,-20.718 0.379,-1.375 -0.71,-0.025 -2.42,3 -4.177,7.391 -8.391,11.547 -15,14.793 L 790.5,304.5 h -749 l -5.217,-2.75 C 29.264,298.05 24.38,292.952 20.818,285.606 18.422,280.664 17.986,280.167 18.536,283"
     fill-rule="evenodd"
     id="path2"
     style="filter:url(#filter10)"
     sodipodi:nodetypes="cccccsccsccccccccssccccccccccccscccccccccccccc"
     transform="matrix(0.51441844,0,0,0.48940471,3.4558412,10.849201)"
     clip-path="url(#clipPath83)" /><path
     fill="#393939"
     stroke="#393939"
     d="M 37.909,10.893 C 34.834,11.879 27.260137,5.7675848 24.722137,7.5135848 20.225137,10.608585 23.062,18.984 22.009,17.017 19.497,12.322 14.297,17.032 8.099,29.616 4.692,36.534 4.012,48.767 2.853,124 2.239,163.875 1.535,209.325 1.289,225 c -0.445,28.354 0.038,36.788 3.344,58.296 3.52,22.901 15.248,35.968 36.039,40.154 20.068,4.04 740.675,3.934 755.328,-0.111 13.015,-3.593 25.284,-12.531 29.227,-21.291 1.125,-2.502 3.07,-6.798 4.321,-9.548 1.25,-2.75 2.746,-7.7 3.324,-11 2.344,-13.389 1.254,-232.707 -1.168,-235.129 -0.387,-0.388 -0.794,9.383 -0.905,21.712 L 830.598,90.5 829.994,66 C 829.546,47.806 828.992,40.342 827.844,37 823.264,23.666 813.308,10.506 810.039,13.465 807.645,15.632 804.79003,1.6197323 797.922,5.6921023 L 791.5,9.5 417.5,9.3 C 60.387,9.11 43.248,9.182 37.909,10.893 M 42.5,17.396 C 31.053,21.024 22.015,31.239 22.058,40.5 c 0.012,2.531 0.53,1.9 3.315,-4.032 3.797,-8.09 9.403,-13.522 16.422,-15.914 7.041,-2.399 740.091,-2.371 748.171,0.029 6.997,2.078 14.727,9.659 17.756,17.417 1.866,4.777 2.156,5.106 2.203,2.5 0.141,-7.634 -7.511,-17.562 -16.874,-21.894 L 788.5,16.5 417.5,16.314 C 120.284,16.165 45.704,16.38 42.5,17.396 M 18.536,283 c 2.273,11.72 13.111,21.524 26.541,24.006 3.647,0.675 128.842,0.926 374.949,0.753 L 789.5,307.5 l 5.665,-2.782 c 8.858,-4.351 15.985,-12.434 18.267,-20.718 0.379,-1.375 -0.71,-0.025 -2.42,3 -4.177,7.391 -8.391,11.547 -15,14.793 L 790.5,304.5 h -749 l -5.217,-2.75 C 29.264,298.05 24.38,292.952 20.818,285.606 18.422,280.664 17.986,280.167 18.536,283"
     fill-rule="evenodd"
     id="path78"
     style="filter:url(#filter10)"
     sodipodi:nodetypes="cccccsccsccccccccssccccccccccccscccccccccccccc"
     transform="matrix(0.51441632,0,0,-0.49280163,3.4567327,174.63247)"
     clip-path="url(#clipPath82)" /><path
     fill="#101010"
     stroke="#101010"
     d="m 239.02752,94.766871 c -7.01411,0.91906 -12.69317,5.887259 -14.15769,12.384539 -0.36147,1.60323 -0.59444,10.82911 -0.67096,26.57149 l -0.11771,24.11529 -2.02953,0.13487 -2.02953,0.13486 -0.36197,11.86741 c -0.51645,16.92536 -0.006,44.34133 0.88382,47.48123 2.65978,9.38442 9.07748,14.43211 20.4003,16.0465 4.38474,0.62521 4.40926,1.02043 0.0471,0.75472 -2.35226,-0.14336 -3.10365,-0.0947 -2.09477,0.13576 0.86468,0.19738 8.0377,0.51981 15.94004,0.71631 15.97633,0.3979 347.37111,0.34342 350.08876,-0.0572 3.40184,-0.50197 7.84348,-2.05338 10.63813,-3.71644 2.83929,-1.68941 6.52806,-4.77259 6.52806,-5.45676 0,-0.19828 0.53853,-1.42057 1.19624,-2.71699 3.1728,-6.25032 2.8952,-3.4083 3.26501,-33.39387 0.18589,-15.10556 0.37177,-29.17281 0.41297,-31.26057 0.11967,-6.08867 -0.4321,-29.15093 -0.70283,-29.39789 -0.13635,-0.1237 -0.24916,18.74875 -0.25063,41.93918 -10e-4,25.0165 -0.19569,43.23694 -0.47673,44.80131 -0.57826,3.21448 -3.73095,9.08387 -5.39951,10.0525 l -1.22027,0.70828 1.13249,-1.56303 c 4.09143,-5.6461 5.2656,-10.34278 4.80064,-19.20292 -0.16136,-3.07023 -0.29574,-15.07742 -0.29918,-26.68313 l -0.006,-21.10088 h -4.41416 l -0.007,-23.78036 c -0.006,-19.64236 -0.13622,-24.27875 -0.74831,-26.64428 -1.57733,-6.09179 -5.39362,-10.177104 -11.27329,-12.067028 l -3.35815,-1.079383 -181.52119,-0.03707 c -99.83611,-0.02009 -182.7238,0.120578 -184.19372,0.313501 m -1.72692,3.473496 c -2.96092,1.037404 -6.10675,3.747694 -7.66789,6.605364 l -1.13738,2.0824 -0.0216,43.20657 c -0.0147,29.72567 0.13831,43.2088 0.49047,43.21327 0.34577,0.005 0.34921,0.11342 0.0108,0.33493 -0.28692,0.18801 -0.36686,0.99587 -0.18686,1.89126 l 0.31389,1.56303 0.13635,-1.56303 c 0.13929,-1.60188 0.35902,-16.97493 0.43848,-30.70234 l 0.0446,-7.70349 h 191.97589 c 105.58678,0 192.33098,0.12415 192.76454,0.27553 0.61014,0.21302 0.66115,0.41488 0.22514,0.89316 -0.42818,0.46936 -0.41642,0.61762 0.0476,0.61762 0.46594,0 0.47623,0.14738 0.0441,0.62119 -0.41592,0.45686 -0.54442,7.71332 -0.4836,27.38605 0.0888,28.89369 0.13536,28.30689 -2.58032,32.32565 -1.79118,2.65046 -1.76715,3.1274 0.0755,1.51972 0.80877,-0.7056 1.96724,-2.40081 2.57493,-3.76779 l 1.10501,-2.48567 v -108.0722 l -1.07901,-1.83678 c -1.47429,-2.50888 -5.55593,-5.746582 -8.32998,-6.60714 -3.94921,-1.225415 -365.2519,-1.026687 -368.76068,0.202747 m -8.5213,99.827053 c 0.0236,0.52027 0.13979,0.6261 0.29624,0.27017 0.14175,-0.32242 0.12409,-0.70782 -0.0387,-0.85609 -0.16283,-0.14826 -0.27858,0.11522 -0.25749,0.58592 m 0,2.67947 c 0.0235,0.52028 0.13978,0.62611 0.29624,0.27018 0.14174,-0.32243 0.12408,-0.70783 -0.0387,-0.85609 -0.16283,-0.14826 -0.27858,0.11522 -0.25749,0.58591 m 0,2.67948 c 0.0236,0.52027 0.13978,0.62611 0.29624,0.27018 0.14175,-0.32243 0.12409,-0.70783 -0.0387,-0.85609 -0.16284,-0.14826 -0.27858,0.11522 -0.25749,0.58591 m 0.0387,1.97255 c 0,0.61404 0.11133,0.86547 0.24719,0.55822 0.13635,-0.3068 0.13635,-0.80921 0,-1.11645 -0.13586,-0.3068 -0.24719,-0.0558 -0.24719,0.55823 m 0.0275,6.05963 c 0.2624,5.18702 1.63815,8.18491 4.74572,10.34278 l 1.74948,1.21515 -1.11581,-1.42682 c -0.61356,-0.78464 -1.34828,-1.55723 -1.63225,-1.7171 -1.49199,-0.83957 -3.20959,-5.52642 -3.26698,-8.91552 -0.0319,-1.8926 -0.20452,-3.56549 -0.38305,-3.71822 -0.17853,-0.15228 -0.22218,1.74657 -0.0971,4.21973 m -2.61073,2.20208 c -0.12016,0.84003 -0.44191,1.29152 -0.86322,1.21023 -0.5189,-0.0996 -0.5964,0.255 -0.34136,1.56303 0.95542,4.90211 5.67711,9.89352 11.14626,11.78301 l 3.10904,1.07402 H 605.1706 l 2.83732,-1.04277 c 5.32495,-1.95691 10.38997,-7.38954 11.30958,-12.13133 l 0.30359,-1.56303 -0.92452,1.00124 -0.92501,1.00123 0.27269,-1.85107 c 0.19668,-1.33304 0.11478,-1.76221 -0.29231,-1.53311 -0.31095,0.17506 -0.56501,0.65781 -0.5655,1.07313 -10e-4,3.21224 -4.88943,8.87666 -9.27612,10.74961 l -2.73972,1.17004 H 238.79504 l -2.2576,-0.96059 c -4.64713,-1.9779 -7.5335,-5.13745 -9.16086,-10.02839 -0.83084,-2.49638 -0.97406,-2.68662 -1.1418,-1.51525 m 19.67197,10.96531 c -2.83242,0.13621 76.29146,0.24027 175.83083,0.23089 99.53939,-0.009 175.13194,-0.0701 167.98344,-0.13531 -26.88667,-0.24562 -338.88365,-0.33226 -343.81427,-0.0956 m -18.63513,5.11468 c 0.9157,1.00436 4.88207,3.06666 5.25139,2.73039 0.16774,-0.15228 0.0976,-0.27733 -0.15597,-0.27733 -0.25357,0 -1.6509,-0.71363 -3.10561,-1.5858 -1.45422,-0.87217 -2.34981,-1.26248 -1.98981,-0.86726 m 381.94774,2.40662 c -1.27961,0.39388 -2.32822,0.88869 -2.32969,1.09948 -0.003,0.48677 1.72447,0.0947 4.47253,-1.01596 2.56707,-1.03741 1.13787,-1.09279 -2.14284,-0.0835 m -374.34802,1.38619 c 0.53951,0.21123 1.31199,0.38361 1.71662,0.38361 0.46349,0 0.37324,-0.14157 -0.24523,-0.38361 -0.53951,-0.21124 -1.31199,-0.38362 -1.71662,-0.38362 -0.46349,0 -0.37324,0.14157 0.24523,0.38362 m 42.06648,0.30947 c 0.47722,0.11343 1.13935,0.10584 1.4714,-0.0165 0.33203,-0.12237 -0.0584,-0.21481 -0.86763,-0.20587 -0.80926,0.009 -1.08098,0.10896 -0.60377,0.22239 m 4.15962,-0.0138 c 0.33744,0.12415 0.88921,0.12415 1.22616,0 0.33743,-0.1237 0.0613,-0.22508 -0.61308,-0.22508 -0.67439,0 -0.95003,0.10138 -0.61308,0.22508 m 56.89367,0 c 0.33743,0.12415 0.8892,0.12415 1.22615,0 0.33743,-0.1237 0.0613,-0.22508 -0.61308,-0.22508 -0.67439,0 -0.95003,0.10138 -0.61307,0.22508 m 2.4832,0.009 c 0.35363,0.12906 0.7769,0.11298 0.93973,-0.0353 0.16284,-0.14826 -0.12654,-0.25366 -0.64349,-0.23445 -0.57139,0.0214 -0.68763,0.12727 -0.29624,0.26973 m 1.96185,0 c 0.35363,0.12906 0.7769,0.11299 0.93973,-0.0353 0.16283,-0.14826 -0.12654,-0.25366 -0.64349,-0.23445 -0.57139,0.0214 -0.68762,0.12727 -0.29624,0.26973 m 2.66665,0.0148 c 0.74158,0.10226 1.95596,0.10226 2.69755,0 0.74157,-0.10227 0.13487,-0.18578 -1.34878,-0.18578 -1.48365,0 -2.09035,0.0835 -1.34877,0.18578 m 181.22592,-0.0241 c 0.33744,0.12415 0.88921,0.12415 1.22616,0 0.33744,-0.1237 0.0613,-0.22508 -0.61308,-0.22508 -0.67438,0 -0.95003,0.10138 -0.61308,0.22508 m 14.95911,0.012 c 0.47183,0.11254 1.24479,0.11254 1.71662,0 0.47183,-0.11209 0.0858,-0.20409 -0.85831,-0.20409 -0.94414,0 -1.33013,0.092 -0.85831,0.20409 m 28.69795,0.008 c 0.61013,0.10674 1.49297,0.10272 1.96185,-0.009 0.46888,-0.11165 -0.0304,-0.19918 -1.10942,-0.19427 -1.07902,0.005 -1.46257,0.0965 -0.85243,0.2032 m 3.67258,-0.008 c 0.47183,0.11254 1.24479,0.11254 1.71662,0 0.47183,-0.11209 0.0858,-0.20409 -0.85831,-0.20409 -0.94413,0 -1.33013,0.092 -0.85831,0.20409 m 13.97818,0.008 c 0.60671,0.1063 1.60039,0.1063 2.20709,0 0.6067,-0.10672 0.11035,-0.19381 -1.10354,-0.19381 -1.2139,0 -1.71024,0.0871 -1.10355,0.19381"
     fill-rule="evenodd"
     id="path3"
     sodipodi:nodetypes="ccccccccccccccscccccccccccccccsccccccccccccccsscscccssccccccssccssccsscccccccccccccccccccscccccscccccccccccccscccccccscsccsscccscccsccscccscccsscccscccsccsscccscccsc"
     style="stroke-width:0.468007"
     clip-path="url(#clipPath81)"
     transform="matrix(1.0488434,0,0,1.095896,-225.13998,-87.980224)" /></svg>
